<svg width="185" height="37" viewBox="0 0 185 37" fill="none" xmlns="http://www.w3.org/2000/svg">
<g clip-path="url(#clip0_47_631)">
<path d="M180.003 6.00628H179.479V3.28852H178.541V2.80911H180.941V3.28852H180.003V6.00628Z" fill="white"/>
<path d="M183.054 5.05163L183.159 5.53563H183.232L183.337 5.05163L183.975 2.80911H185V6.00628H184.476V3.27933H184.339L183.56 6.00628H182.831L182.052 3.27933H181.916V6.00628H181.392V2.80911H182.417L183.054 5.05163Z" fill="white"/>
<path d="M58.7488 14.1842V21.2937H55.1738V14.7173C55.1738 13.2659 55.0852 12.1105 54.3467 11.0144C53.7852 10.2147 52.9285 9.80006 51.9534 9.80006C50.417 9.80006 48.6443 11.281 48.6443 14.0657V21.2937H45.0693V14.7174C45.0693 13.2659 44.9808 12.1105 44.2125 11.0144C43.6807 10.2147 42.824 9.80008 41.849 9.80008C40.2831 9.80008 38.5104 11.281 38.5104 14.0657V21.2937H34.9648V7.13397L38.274 6.83762V9.02982C39.3966 7.48933 41.199 6.77835 42.7649 6.77835C44.7443 6.77835 46.1331 7.51909 47.1375 8.67446C47.4331 9.02982 47.6693 9.44444 47.8761 9.85933C48.9102 7.7559 51.0375 6.77835 52.8693 6.77835C54.8487 6.77835 56.2376 7.51909 57.242 8.67446C58.5125 10.1259 58.7488 12.4956 58.7488 14.1842Z" fill="white"/>
<path d="M61.1128 14.0361C61.1128 9.94811 64.5993 6.66006 69.0014 6.66006C73.4035 6.66006 76.9196 9.94811 76.9196 14.0361C76.9196 18.1534 73.4037 21.4417 69.0014 21.4417C64.599 21.4417 61.1128 18.1534 61.1128 14.0361ZM73.2558 14.0361C73.2558 11.5476 71.3946 9.59274 69.0014 9.59274C66.6081 9.59274 64.7764 11.5476 64.7764 14.0361C64.7764 16.5834 66.6084 18.509 69.0014 18.509C71.3943 18.509 73.2558 16.5834 73.2558 14.0361Z" fill="white"/>
<path d="M103.097 14.1842V21.2937H99.5219V14.7173C99.5219 13.2659 99.4334 12.1105 98.6948 11.0144C98.1333 10.2147 97.2766 9.80006 96.3016 9.80006C94.7651 9.80006 92.9924 11.281 92.9924 14.0657V21.2937H89.4174V14.7174C89.4174 13.2659 89.3289 12.1105 88.5607 11.0144C88.0289 10.2147 87.1721 9.80008 86.1971 9.80008C84.6312 9.80008 82.8586 11.281 82.8586 14.0657V21.2937H79.313V7.13397L82.6221 6.83762V9.02982C83.7448 7.48933 85.5471 6.77835 87.113 6.77835C89.0924 6.77835 90.4812 7.51909 91.4857 8.67446C91.7812 9.02982 92.0174 9.44444 92.2242 9.85933C93.2583 7.7559 95.3857 6.77835 97.2175 6.77835C99.1969 6.77835 100.586 7.51909 101.59 8.67446C102.861 10.1259 103.097 12.4956 103.097 14.1842Z" fill="white"/>
<path d="M120.381 15.1025H109.213C109.39 16.9093 111.104 18.6869 113.734 18.6869C115.654 18.6869 116.984 18.0352 118.018 17.2351L119.672 19.5161C118.165 20.701 116.127 21.4417 113.468 21.4417C108.327 21.4417 105.461 17.8278 105.461 14.0656C105.461 9.85933 108.622 6.68958 113.025 6.68958C117.309 6.68958 120.44 9.53348 120.44 14.0656C120.44 14.3617 120.44 14.8359 120.381 15.1025ZM109.243 12.7622H116.836C116.777 10.9551 115.388 9.41494 113.054 9.41494C111.282 9.41494 109.568 10.6293 109.243 12.7622Z" fill="white"/>
<path d="M137.045 13.8286V21.2937H133.47V14.7766C133.47 13.3844 133.382 12.081 132.673 11.133C132.023 10.274 131.225 9.80007 129.984 9.80007C127.975 9.80007 126.38 11.7847 126.38 14.421V21.2937H122.834V7.13398L126.143 6.83763V9.3852C127.236 7.63764 129.068 6.77838 131.018 6.77838C132.968 6.77838 134.445 7.63767 135.45 8.73351C136.661 10.0369 137.045 11.8439 137.045 13.8286Z" fill="white"/>
<path d="M148.805 20.4344C147.948 20.9678 146.973 21.2344 145.585 21.2344C141.921 21.2344 140.798 18.6571 140.798 16.1095V10.0666H138.464L138.76 7.13396H140.798V3.37179L144.373 2.80911V7.13398H148.391L148.096 10.0667H144.373V15.6652C144.373 17.5315 145.289 18.1832 146.294 18.1832C146.944 18.1832 147.416 17.9759 147.83 17.7093L148.805 20.4344Z" fill="white"/>
<path d="M150.873 14.0064V7.13396L154.507 6.83762V14.3617C154.507 17.2351 156.043 18.5386 158.052 18.5386C160.032 18.5386 161.568 17.2351 161.568 14.3617V7.13396L165.232 6.83762V14.0064C165.232 18.6869 162.603 21.4417 158.052 21.4417C153.473 21.4417 150.873 18.6869 150.873 14.0064Z" fill="white"/>
<path d="M167.419 19.931L169.132 17.3242C169.812 18.0352 171.083 18.6276 172.235 18.6276C173.357 18.6276 174.273 18.0646 174.273 17.0871C174.273 16.0208 173.21 15.6061 171.673 14.9544C169.635 14.0951 168.069 12.9993 168.069 10.9256C168.069 8.73345 170.108 6.71933 173.21 6.71933C175.16 6.71933 176.726 7.25249 177.671 7.96347L176.164 10.3332C175.692 9.9481 174.717 9.50371 173.683 9.50371C172.53 9.50371 171.703 10.0369 171.703 10.9256C171.703 12.0217 173.003 12.4956 174.421 13.0881C176.548 13.9769 177.967 15.0727 177.967 16.9685C177.967 19.1902 176.076 21.4417 172.117 21.4417C170.521 21.4417 168.778 20.9973 167.419 19.931Z" fill="white"/>
<path d="M27.8388 6.69424L16.7124 11.1556L21.1621 0H18.1968L13.9194 10.7236L9.64208 0H6.67681L11.1265 11.1556L0 6.69424V9.66722L10.6956 13.9558L0 18.2444V21.2175L11.1265 16.7561L6.67679 27.9117H9.64205L13.9194 17.1882L18.1968 27.9117H21.1621L16.7123 16.756L27.8388 21.2175V18.2444L17.1433 13.9559L27.8388 9.66724V6.69424ZM13.2697 15.5595H12.32V12.3523H15.5188V15.5595H13.2697Z" fill="white"/>
<path d="M95.1374 33.4129C94.7122 33.6776 94.2284 33.8097 93.5391 33.8097C91.7208 33.8097 91.1638 32.5307 91.1638 31.2663V28.2674H90.0054L90.152 26.8119H91.1638V24.9447L92.9379 24.6654V26.8119H94.9322L94.7856 28.2674H92.9379V31.046C92.9379 31.972 93.3925 32.2955 93.8912 32.2955C94.2138 32.2955 94.4484 32.1926 94.6536 32.0603L95.1374 33.4129Z" fill="white"/>
<path d="M103.027 30.7666H97.4844C97.5724 31.6634 98.4228 32.5456 99.7279 32.5456C100.681 32.5456 101.341 32.2221 101.854 31.825L102.675 32.9571C101.927 33.5453 100.916 33.9128 99.5959 33.9128C97.0446 33.9128 95.6221 32.1193 95.6221 30.2521C95.6221 28.1643 97.1912 26.5913 99.3759 26.5913C101.502 26.5913 103.056 28.0027 103.056 30.2521C103.056 30.3991 103.056 30.6343 103.027 30.7666ZM97.4989 29.6051H101.268C101.238 28.7083 100.549 27.9439 99.3907 27.9439C98.5108 27.9439 97.6604 28.5467 97.4989 29.6051Z" fill="white"/>
<path d="M103.952 30.2374C103.952 28.0909 105.77 26.5913 107.896 26.5913C108.805 26.5913 109.67 26.8412 110.286 27.2675L109.524 28.5026C109.201 28.2525 108.6 28.0322 107.984 28.0322C106.738 28.0322 105.755 28.929 105.755 30.2226C105.755 31.5015 106.708 32.472 108.014 32.472C108.644 32.472 109.304 32.2367 109.729 31.9428L110.374 33.1777C109.744 33.6481 108.864 33.9128 107.911 33.9128C105.506 33.9128 103.952 32.2072 103.952 30.2374Z" fill="white"/>
<path d="M118.718 30.1343V33.8392H116.944V30.6048C116.944 29.914 116.9 29.267 116.548 28.7966C116.226 28.3702 115.83 28.135 115.214 28.135C114.217 28.135 113.44 29.12 113.44 30.4285V33.8392H111.666V23.254L113.381 23.107V27.8261C113.938 27.0322 114.789 26.6354 115.727 26.6354C116.695 26.6354 117.428 27.0617 117.927 27.6058C118.528 28.2525 118.718 29.1493 118.718 30.1343Z" fill="white"/>
<path d="M127.444 30.1343V33.8392H125.67V30.6048C125.67 29.914 125.626 29.267 125.274 28.7966C124.951 28.3702 124.556 28.135 123.939 28.135C122.942 28.135 122.151 29.12 122.151 30.4285V33.8392H120.391V26.8119L122.033 26.6649V27.9293C122.576 27.0617 123.485 26.6354 124.453 26.6354C125.42 26.6354 126.154 27.0617 126.652 27.6058C127.253 28.2525 127.444 29.1493 127.444 30.1343Z" fill="white"/>
<path d="M128.721 30.2374C128.721 28.2083 130.451 26.5767 132.636 26.5767C134.821 26.5767 136.566 28.2084 136.566 30.2374C136.566 32.2808 134.821 33.9128 132.636 33.9128C130.452 33.9128 128.721 32.2808 128.721 30.2374ZM134.748 30.2374C134.748 29.0023 133.824 28.0321 132.636 28.0321C131.449 28.0321 130.54 29.0023 130.54 30.2374C130.54 31.5015 131.449 32.4573 132.636 32.4573C133.824 32.4573 134.748 31.5015 134.748 30.2374Z" fill="white"/>
<path d="M137.931 31.2958V23.254L139.705 23.107V31.046C139.705 31.9869 140.13 32.2955 140.702 32.2955C141.01 32.2955 141.201 32.1926 141.391 32.0603L141.787 33.4129C141.377 33.7217 140.893 33.8097 140.262 33.8097C138.869 33.8097 137.931 33.0161 137.931 31.2958Z" fill="white"/>
<path d="M142.125 30.2374C142.125 28.2083 143.855 26.5767 146.04 26.5767C148.225 26.5767 149.97 28.2084 149.97 30.2374C149.97 32.2808 148.225 33.9128 146.04 33.9128C143.856 33.9128 142.125 32.2808 142.125 30.2374ZM148.152 30.2374C148.152 29.0023 147.228 28.0321 146.04 28.0321C144.853 28.0321 143.943 29.0023 143.943 30.2374C143.943 31.5015 144.853 32.4573 146.04 32.4573C147.228 32.4573 148.152 31.5015 148.152 30.2374Z" fill="white"/>
<path d="M158.52 26.6649V33.0012C158.52 35.3093 156.921 37 154.355 37C152.904 37 151.907 36.5149 151.305 36.0299L152.112 34.7655C152.713 35.2506 153.461 35.5299 154.384 35.5299C155.865 35.5299 156.863 34.4715 156.863 33.1923V32.7954C156.305 33.4424 155.455 33.8687 154.384 33.8687C152.64 33.8687 150.865 32.4425 150.865 30.2521C150.865 28.0173 152.713 26.6354 154.384 26.6354C155.396 26.6354 156.276 27.0618 156.863 27.7528V26.8119L158.52 26.6649ZM156.775 30.2374C156.775 28.9289 155.851 28.0026 154.722 28.0026C153.578 28.0026 152.64 28.9435 152.64 30.2374C152.64 31.5457 153.578 32.4866 154.722 32.4866C155.866 32.4866 156.775 31.5605 156.775 30.2374Z" fill="white"/>
<path d="M160.178 24.2685C160.178 23.6803 160.691 23.1657 161.292 23.1657C161.879 23.1657 162.407 23.6803 162.407 24.2685C162.407 24.886 161.879 25.4005 161.292 25.4005C160.691 25.4005 160.178 24.886 160.178 24.2685ZM160.398 26.8119L162.172 26.6649V33.8392H160.398V26.8119Z" fill="white"/>
<path d="M171.058 30.7666H165.515C165.603 31.6634 166.454 32.5456 167.759 32.5456C168.712 32.5456 169.372 32.2221 169.885 31.825L170.706 32.9571C169.958 33.5453 168.946 33.9128 167.627 33.9128C165.075 33.9128 163.653 32.1193 163.653 30.2521C163.653 28.1643 165.222 26.5913 167.407 26.5913C169.533 26.5913 171.087 28.0027 171.087 30.2521C171.087 30.3991 171.087 30.6343 171.058 30.7666ZM165.53 29.6051H169.298C169.269 28.7083 168.58 27.9439 167.421 27.9439C166.542 27.9439 165.691 28.5467 165.53 29.6051Z" fill="white"/>
<path d="M171.939 33.163L172.789 31.8691C173.127 32.2221 173.757 32.5161 174.329 32.5161C174.886 32.5161 175.341 32.2367 175.341 31.7517C175.341 31.2225 174.813 31.0165 174.05 30.693C173.039 30.2667 172.261 29.7229 172.261 28.6937C172.261 27.6058 173.273 26.6059 174.813 26.6059C175.78 26.6059 176.558 26.8707 177.027 27.2234L176.279 28.3998C176.045 28.2084 175.561 27.988 175.047 27.988C174.476 27.988 174.065 28.2525 174.065 28.6937C174.065 29.2375 174.71 29.4728 175.414 29.767C176.47 30.208 177.174 30.752 177.174 31.6929C177.174 32.7955 176.235 33.9128 174.27 33.9128C173.478 33.9128 172.613 33.6922 171.939 33.163Z" fill="white"/>
</g>
<defs>
<clipPath id="clip0_47_631">
<rect width="185" height="37" fill="white"/>
</clipPath>
</defs>
</svg>
